<?xml version="1.0" encoding="utf-8"?>
<svg version="1.1" xmlns:xlink="http://www.w3.org/1999/xlink" width="38px" height="33px" xmlns="http://www.w3.org/2000/svg">
  <g transform="matrix(1 0 0 1 -10 -19 )">
    <path d="M 20.99330357142857 4.215755855216465  C 19.113095238095237 3.4038325053229217  17.091517857142858 2.997870830376154  14.928571428571429 2.997870830376154  C 12.765625 2.997870830376154  10.744047619047619 3.4038325053229217  8.863839285714286 4.215755855216465  C 6.9836309523809526 5.0276792051100045  5.488653273809525 6.128459900638745  4.37890625 7.518097941802695  C 3.2691592261904763 8.907735982966642  2.714285714285714 10.39886444286728  2.714285714285714 11.991483321504612  C 2.714285714285714 13.271823988644428  3.088913690476191 14.505322924059614  3.838169642857143 15.691980127750178  C 4.587425595238096 16.87863733144074  5.640625 17.90915542938254  6.997767857142858 18.783534421575588  L 9.0546875 20.095102909865155  L 8.3125 22.062455642299504  C 8.793154761904763 21.750177430801983  9.23139880952381 21.445706174591905  9.627232142857144 21.14904187366927  L 10.560267857142856 20.422995031937546  L 11.684151785714285 20.65720369056068  C 12.786830357142856 20.875798438608946  13.868303571428571 20.985095812633073  14.928571428571429 20.985095812633073  C 17.091517857142858 20.985095812633073  19.113095238095237 20.579134137686307  20.99330357142857 19.767210787792763  C 22.873511904761905 18.95528743789922  24.368489583333336 17.854506742370475  25.478236607142858 16.464868701206527  C 26.587983630952387 15.075230660042582  27.142857142857142 13.584102200141944  27.142857142857142 11.991483321504612  C 27.142857142857142 10.39886444286728  26.587983630952387 8.907735982966642  25.478236607142858 7.518097941802695  C 24.368489583333336 6.128459900638745  22.873511904761905 5.0276792051100045  20.99330357142857 4.215755855216465  Z M 7.432477678571428 1.6043293115684896  C 9.729724702380953 0.5347764371894953  12.22842261904762 0  14.928571428571429 0  C 17.62872023809524 0  20.127418154761905 0.5347764371894953  22.42466517857143 1.6043293115684896  C 24.721912202380956 2.6738821859474764  26.53497023809524 4.129879347054645  27.86383928571429 5.972320794889993  C 29.192708333333336 7.814762242725333  29.857142857142858 9.821149751596877  29.857142857142858 11.991483321504612  C 29.857142857142858 14.161816891412347  29.192708333333336 16.168204400283887  27.86383928571429 18.010645848119236  C 26.53497023809524 19.853087295954573  24.721912202380956 21.309084457061743  22.42466517857143 22.37863733144074  C 20.127418154761905 23.448190205819724  17.62872023809524 23.982966643009227  14.928571428571429 23.982966643009227  C 13.71279761904762 23.982966643009227  12.46875 23.858055358410216  11.196428571428571 23.60823278921221  C 9.443452380952381 24.982256919801276  7.4784226190476195 25.98154719659333  5.301339285714286 26.60610361958836  C 4.792410714285714 26.746628814762246  4.18452380952381 26.871540099361248  3.477678571428571 26.980837473385378  L 3.4140625 26.980837473385378  C 3.2585565476190483 26.980837473385378  3.113653273809524 26.918381831085878  2.979352678571429 26.79347054648687  C 2.8450520833333335 26.668559261887864  2.7637648809523814 26.50461320085167  2.735491071428571 26.301632363378282  C 2.721354166666667 26.254790631653655  2.714285714285714 26.204045422285308  2.714285714285714 26.149396735273246  C 2.714285714285714 26.09474804826118  2.717819940476191 26.044002838892833  2.724888392857143 25.997161107168203  C 2.7319568452380953 25.950319375443577  2.74609375 25.90347764371895  2.767299107142857 25.85663591199432  L 2.8203125 25.739531582682755  C 2.8203125 25.739531582682755  2.8450520833333335 25.696593328601846  2.89453125 25.61071682044003  C 2.944010416666667 25.524840312278208  2.9722842261904763 25.485805535841024  2.979352678571429 25.493612491128463  C 2.9864211309523814 25.5014194464159  3.018229166666667 25.46238466997871  3.074776785714286 25.37650816181689  C 3.131324404761905 25.290631653655073  3.159598214285714 25.255500354861603  3.159598214285714 25.27111426543648  C 3.230282738095238 25.177430801987224  3.392857142857143 24.982256919801273  3.647321428571429 24.685592618878637  C 3.901785714285714 24.388928317955994  4.085565476190476 24.15862313697658  4.198660714285714 23.994677075940384  C 4.3117559523809526 23.830731014904188  4.470796130952381 23.604329311568485  4.67578125 23.315471965933288  C 4.8807663690476195 23.02661462029808  5.057477678571428 22.726046841731723  5.205915178571428 22.41376863023421  C 5.354352678571428 22.101490418736688  5.4992559523809526 21.757984386089426  5.640625 21.383250532292404  C 3.887648809523809 20.25904897090135  2.5093005952380953 18.87721788502484  1.505580357142857 17.237757274662883  C 0.501860119047619 15.598296664300923  0 13.849538679914831  0 11.991483321504612  C 0 9.821149751596877  0.6644345238095238 7.814762242725333  1.9933035714285714 5.972320794889993  C 3.3221726190476195 4.129879347054645  5.135230654761905 2.6738821859474764  7.432477678571428 1.6043293115684896  Z M 36.494419642857146 23.24520936834634  C 35.49069940476191 24.876863023420867  34.1123511904762 26.254790631653655  32.359375 27.378992193044713  C 32.500744047619044 27.75372604684173  32.64564732142857 28.097232079489  32.79408482142857 28.409510290986514  C 32.94252232142858 28.72178850248403  33.11923363095239 29.022356281050392  33.32421875 29.311213626685593  C 33.52920386904762 29.600070972320793  33.68824404761905 29.826472675656493  33.801339285714285 29.99041873669269  C 33.914434523809526 30.154364797728885  34.09821428571429 30.384669978708303  34.35267857142857 30.681334279630946  C 34.60714285714286 30.977998580553585  34.769717261904766 31.173172462739533  34.840401785714285 31.266855926188786  C 34.8545386904762 31.282469836763667  34.88281250000001 31.317601135557133  34.925223214285715 31.3722498225692  C 34.96763392857144 31.42689850958126  34.999441964285715 31.465933286018455  35.02064732142857 31.489354151880764  C 35.04185267857144 31.51277501774308  35.07012648809524 31.551809794180272  35.10546875 31.606458481192334  C 35.14081101190476 31.661107168204396  35.1655505952381 31.704045422285308  35.1796875 31.73527324343506  L 35.232700892857146 31.85237757274663  C 35.232700892857146 31.85237757274663  35.24683779761905 31.899219304471256  35.275111607142854 31.992902767920512  C 35.30338541666667 32.086586231369765  35.306919642857146 32.137331440738116  35.285714285714285 32.14513839602555  C 35.26450892857143 32.15294535131299  35.25744047619048 32.20369056068134  35.26450892857143 32.29737402413059  C 35.222098214285715 32.51596877217885  35.130208333333336 32.687721788502486  34.988839285714285 32.81263307310149  C 34.84747023809524 32.937544357700496  34.691964285714285 32.992193044712565  34.52232142857143 32.97657913413769  C 33.8154761904762 32.867281760113556  33.20758928571429 32.74237047551455  32.698660714285715 32.60184528034067  C 30.521577380952387 31.977288857345634  28.55654761904762 30.977998580553585  26.80357142857143 29.603974449964515  C 25.53125 29.853797019162528  24.287202380952387 29.978708303761533  23.07142857142857 29.978708303761533  C 19.24032738095238 29.978708303761533  15.904017857142856 28.94819020581973  13.0625 26.887154009936125  C 13.882440476190478 26.94960965223563  14.504464285714285 26.980837473385378  14.928571428571429 26.980837473385378  C 17.204613095238095 26.980837473385378  19.38876488095238 26.629524485450673  21.48102678571429 25.926898509581264  C 23.573288690476193 25.224272533711854  25.43936011904762 24.217175301632363  27.07924107142857 22.905606813342796  C 28.846354166666668 21.46912704045422  30.20349702380953 19.81405251951739  31.150669642857142 17.940383250532292  C 32.09784226190476 16.066713981547196  32.57142857142857 14.083747338537968  32.57142857142857 11.991483321504612  C 32.57142857142857 10.789212207239176  32.408854166666664 9.602555003548616  32.083705357142854 8.43151171043293  C 33.90736607142857 9.54009936124911  35.349330357142854 10.929737402413057  36.409598214285715 12.600425833924769  C 37.46986607142857 14.271114265436477  38 16.066713981547196  38 17.98722498225692  C 38 19.860894251242016  37.49813988095239 21.613555713271822  36.494419642857146 23.24520936834634  Z " fill-rule="nonzero" fill="#000000" stroke="none" fill-opacity="0.6392156862745098" transform="matrix(1 0 0 1 10 19 )" />
  </g>
</svg>