<?xml version="1.0" encoding="utf-8"?>
<svg version="1.1" xmlns:xlink="http://www.w3.org/1999/xlink" width="39px" height="33px" xmlns="http://www.w3.org/2000/svg">
  <g transform="matrix(1 0 0 1 -153 -19 )">
    <path d="M 18.18834080717489 24.75  L 19.41255605381166 24.75  L 21.94843049327354 22.03125  L 18.62556053811659 18.468749999999996  L 16.08968609865471 21.1875  L 16.08968609865471 22.500000000000004  L 18.18834080717489 22.500000000000004  L 18.18834080717489 24.75  Z M 29.009529147982065 8.6484375  C 29.2572869955157 8.382812499999996  29.26457399103139 8.124999999999996  29.03139013452915 7.875  C 28.798206278026907 7.6249999999999964  28.55773542600897 7.632812499999997  28.309977578475333 7.898437500000001  L 20.658632286995516 16.1015625  C 20.410874439461885 16.3671875  20.403587443946186 16.624999999999996  20.63677130044843 16.875  C 20.869955156950674 17.125  21.110426008968613 17.117187499999996  21.358183856502244 16.851562500000004  L 29.009529147982065 8.6484375  Z M 30.34304932735426 21.1171875  C 30.634529147982065 21.242187499999996  30.78026905829596 21.468750000000004  30.78026905829596 21.796875  L 30.78026905829596 26.25  C 30.78026905829596 28.109375  30.164517937219735 29.69921875  28.93301569506726 31.01953125  C 27.701513452914803 32.33984375  26.218609865470853 33  24.484304932735427 33  L 6.295964125560538 33  C 4.561659192825113 33  3.0787556053811658 32.33984375  1.8472533632286994 31.01953125  C 0.6157511210762331 29.69921875  0 28.109375  0 26.25  L 0 6.750000000000002  C 0 4.8906249999999964  0.6157511210762331 3.3007812499999987  1.8472533632286994 1.9804687500000013  C 3.0787556053811658 0.6601562499999968  4.561659192825113 0  6.295964125560538 0  L 24.484304932735427 0  C 25.402466367713007 0  26.255044843049326 0.19531249999999822  27.042040358744394 0.5859374999999983  C 27.260650224215247 0.6953124999999978  27.391816143497756 0.8749999999999992  27.43553811659193 1.1249999999999991  C 27.479260089686097 1.3906249999999991  27.413677130044842 1.6171874999999982  27.23878923766816 1.8046875  L 26.167600896860986 2.9531249999999996  C 25.963565022421527 3.1718749999999987  25.730381165919283 3.2343750000000004  25.46804932735426 3.1406250000000013  C 25.132847533632287 3.0468749999999987  24.80493273542601 3.000000000000001  24.484304932735427 3  L 6.295964125560538 3  C 5.334080717488789 3.000000000000001  4.510650224215247 3.367187499999997  3.8256726457399104 4.101562499999999  C 3.1406950672645744 4.835937499999998  2.798206278026906 5.718750000000002  3 6.750000000000002  L 3 26.25  C 2.798206278026906 27.28125  3.1406950672645744 28.164062499999993  3.8256726457399104 28.8984375  C 4.510650224215247 29.6328125  5.334080717488789 30  6.295964125560538 30  L 24.484304932735427 30  C 25.446188340807176 30  26.269618834080717 29.6328125  26.954596412556054 28.8984375  C 27.63957399103139 28.164062499999993  27.982062780269057 27.28125  27.982062780269057 26.25  L 27.982062780269057 23.296875000000004  C 27.982062780269057 23.093749999999996  28.047645739910315 22.921875  28.178811659192824 22.781250000000004  L 29.57791479820628 21.28125  C 29.79652466367713 21.046874999999996  30.05156950672646 20.9921875  30.34304932735426 21.1171875  Z M 13.991031390134529 20.25  L 28.681614349775785 4.5  L 34.97757847533632 11.250000000000002  L 20.286995515695065 26.999999999999996  L 13.991031390134529 26.999999999999996  L 13.991031390134529 20.25  Z M 39 5.999999999999998  C 39 6.624999999999998  38.79596412556054 7.156249999999998  38.38789237668161 7.59375  L 36.37668161434978 9.749999999999998  L 30.080717488789237 3.000000000000001  L 32.091928251121075 0.8437499999999983  C 32.5 0.4062499999999969  32.99551569506727 0.18750000000000167  33.578475336322875 0.18750000000000167  C 34.16143497757848 0.18750000000000167  34.65695067264574 0.4062499999999969  35.06502242152467 0.8437499999999983  L 38.38789237668161 4.406250000000001  C 38.79596412556054 4.843749999999995  39 5.374999999999999  39 5.999999999999998  Z " fill-rule="nonzero" fill="#000000" stroke="none" fill-opacity="0.6392156862745098" transform="matrix(1 0 0 1 153 19 )" />
  </g>
</svg>