<?xml version="1.0" encoding="utf-8"?>
<svg version="1.1" xmlns:xlink="http://www.w3.org/1999/xlink" width="38px" height="27px" xmlns="http://www.w3.org/2000/svg">
  <g transform="matrix(1 0 0 1 -307 -27 )">
    <path d="M 10.133333333333333 9.642857142857142  C 10.133333333333333 11.039062499999998  10.667708333333332 12.324776785714286  11.736458333333333 13.5  C 9.598958333333334 13.550223214285715  7.850694444444445 14.193080357142856  6.491666666666667 15.428571428571427  L 3.8395833333333336 15.428571428571427  C 2.7576388888888888 15.428571428571427  1.8472222222222225 15.225167410714286  1.1083333333333334 14.818359375  C 0.3694444444444444 14.411551339285714  0 13.81640625  0 13.032924107142858  C 0 9.487165178571427  0.8180555555555554 7.7142857142857135  2.454166666666667 7.7142857142857135  C 2.533333333333333 7.7142857142857135  2.8203125 7.8197544642857135  3.3151041666666665 8.030691964285714  C 3.8098958333333335 8.241629464285714  4.453125 8.455078124999998  5.244791666666667 8.671037946428573  C 6.036458333333333 8.886997767857142  6.821527777777778 8.994977678571427  7.6000000000000005 8.994977678571427  C 8.484027777777778 8.994977678571427  9.361458333333333 8.879464285714285  10.232291666666667 8.6484375  C 10.166319444444445 9.020089285714283  10.133333333333333 9.351562499999998  10.133333333333333 9.642857142857142  Z M 32.8640625 21.538225446428573  C 32.91024305555556 22.045479910714285  32.93333333333334 22.56529017857143  32.93333333333334 23.09765625  C 32.93333333333334 24.303013392857142  32.45173611111111 25.25474330357143  31.488541666666666 25.952845982142858  C 30.525347222222226 26.650948660714285  29.245486111111113 27  27.648958333333336 27  L 10.351041666666667 27  C 8.754513888888889 27  7.47465277777778 26.650948660714285  6.511458333333334 25.952845982142858  C 5.548263888888889 25.25474330357143  5.066666666666666 24.303013392857142  5.066666666666666 23.09765625  C 5.066666666666666 22.56529017857143  5.089756944444445 22.045479910714285  5.1359375 21.538225446428573  C 5.182118055555557 21.030970982142858  5.274479166666667 20.483537946428573  5.413020833333333 19.895926339285715  C 5.5515625 19.308314732142854  5.72638888888889 18.763392857142858  5.9375 18.261160714285715  C 6.148611111111111 17.75892857142857  6.432291666666667 17.269252232142854  6.788541666666667 16.792131696428573  C 7.144791666666666 16.315011160714285  7.553819444444445 15.908203124999998  8.015625 15.571707589285714  C 8.477430555555555 15.23521205357143  9.041493055555557 14.966517857142856  9.707812500000001 14.765625  C 10.374131944444446 14.56473214285714  11.109722222222222 14.464285714285714  11.914583333333333 14.464285714285714  C 12.04652777777778 14.464285714285714  12.330208333333333 14.572265624999998  12.765625 14.788225446428573  C 13.201041666666667 15.004185267857142  13.682638888888889 15.24525669642857  14.210416666666667 15.511439732142856  C 14.738194444444447 15.77762276785714  15.444097222222224 16.01869419642857  16.328125 16.234654017857146  C 17.212152777777778 16.450613839285715  18.102777777777778 16.55859375  19 16.55859375  C 19.897222222222222 16.55859375  20.787847222222222 16.450613839285715  21.671875 16.234654017857146  C 22.55590277777778 16.01869419642857  23.261805555555558 15.77762276785714  23.789583333333336 15.511439732142856  C 24.31736111111111 15.24525669642857  24.79895833333333 15.004185267857142  25.234375 14.788225446428573  C 25.66979166666667 14.572265624999998  25.953472222222224 14.464285714285714  26.085416666666664 14.464285714285714  C 26.89027777777778 14.464285714285714  27.62586805555556 14.56473214285714  28.2921875 14.765625  C 28.958506944444448 14.966517857142856  29.522569444444443 15.23521205357143  29.984375 15.571707589285714  C 30.44618055555556 15.908203124999998  30.855208333333334 16.315011160714285  31.211458333333336 16.792131696428573  C 31.567708333333332 17.269252232142854  31.851388888888895 17.75892857142857  32.0625 18.261160714285715  C 32.273611111111116 18.763392857142858  32.4484375 19.308314732142854  32.586979166666666 19.895926339285715  C 32.725520833333334 20.483537946428573  32.817881944444444 21.030970982142858  32.8640625 21.538225446428573  Z M 11.182291666666666 1.1300223214285723  C 12.171875 1.883370535714286  12.666666666666666 2.7924107142857117  12.666666666666666 3.8571428571428585  C 12.666666666666666 4.921874999999999  12.171875 5.830915178571428  11.182291666666666 6.5842633928571415  C 10.192708333333334 7.3376116071428585  8.998611111111112 7.7142857142857135  7.6000000000000005 7.7142857142857135  C 6.20138888888889 7.7142857142857135  5.007291666666667 7.3376116071428585  4.017708333333333 6.5842633928571415  C 3.0281249999999997 5.830915178571428  2.533333333333333 4.921874999999999  2.533333333333333 3.8571428571428585  C 2.533333333333333 2.7924107142857117  3.0281249999999997 1.883370535714286  4.017708333333333 1.1300223214285723  C 5.007291666666667 0.3766741071428584  6.20138888888889 0  7.6000000000000005 0  C 8.998611111111112 0  10.192708333333334 0.3766741071428584  11.182291666666666 1.1300223214285723  Z M 24.373437499999998 5.5521763392857135  C 25.857812499999998 6.6821986607142865  26.599999999999998 8.045758928571427  26.599999999999998 9.642857142857142  C 26.599999999999998 11.239955357142858  25.857812499999998 12.603515625  24.373437499999998 13.733537946428573  C 22.889062499999998 14.863560267857144  21.097916666666666 15.428571428571427  19 15.428571428571427  C 16.902083333333337 15.428571428571427  15.110937500000002 14.863560267857144  13.6265625 13.733537946428573  C 12.1421875 12.603515625  11.4 11.239955357142858  11.4 9.642857142857142  C 11.4 8.045758928571427  12.1421875 6.6821986607142865  13.6265625 5.5521763392857135  C 15.110937500000002 4.4221540178571415  16.902083333333337 3.8571428571428585  19 3.8571428571428585  C 21.097916666666666 3.8571428571428585  22.889062499999998 4.4221540178571415  24.373437499999998 5.5521763392857135  Z M 35.545833333333334 7.7142857142857135  C 37.181944444444454 7.7142857142857135  38.00000000000001 9.487165178571427  38 13.032924107142858  C 38.00000000000001 13.81640625  37.63055555555556 14.411551339285714  36.891666666666666 14.818359375  C 36.15277777777778 15.225167410714286  35.242361111111116 15.428571428571427  34.16041666666666 15.428571428571427  L 31.508333333333336 15.428571428571427  C 30.14930555555556 14.193080357142856  28.401041666666668 13.550223214285715  26.26354166666667 13.5  C 27.332291666666666 12.324776785714286  27.866666666666664 11.039062499999998  27.866666666666664 9.642857142857142  C 27.866666666666664 9.351562499999998  27.833680555555556 9.020089285714283  27.76770833333333 8.6484375  C 28.63854166666667 8.879464285714285  29.515972222222224 8.994977678571427  30.400000000000002 8.994977678571427  C 31.178472222222222 8.994977678571427  31.963541666666668 8.886997767857142  32.75520833333333 8.671037946428573  C 33.546875 8.455078124999998  34.19010416666667 8.241629464285714  34.68489583333333 8.030691964285714  C 35.1796875 7.8197544642857135  35.46666666666667 7.7142857142857135  35.545833333333334 7.7142857142857135  Z M 33.98229166666667 1.1300223214285723  C 34.971875 1.883370535714286  35.46666666666667 2.7924107142857117  35.46666666666667 3.8571428571428585  C 35.46666666666667 4.921874999999999  34.971875 5.830915178571428  33.98229166666667 6.5842633928571415  C 32.99270833333333 7.3376116071428585  31.79861111111111 7.7142857142857135  30.400000000000002 7.7142857142857135  C 29.00138888888889 7.7142857142857135  27.807291666666668 7.3376116071428585  26.817708333333332 6.5842633928571415  C 25.828125 5.830915178571428  25.333333333333332 4.921874999999999  25.333333333333332 3.8571428571428585  C 25.333333333333332 2.7924107142857117  25.828125 1.883370535714286  26.817708333333332 1.1300223214285723  C 27.807291666666668 0.3766741071428584  29.00138888888889 0  30.400000000000002 0  C 31.79861111111111 0  32.99270833333333 0.3766741071428584  33.98229166666667 1.1300223214285723  Z " fill-rule="nonzero" fill="#000000" stroke="none" fill-opacity="0.6392156862745098" transform="matrix(1 0 0 1 307 27 )" />
  </g>
</svg>