<?xml version="1.0" encoding="utf-8"?>
<svg version="1.1" xmlns:xlink="http://www.w3.org/1999/xlink" width="32px" height="33px" xmlns="http://www.w3.org/2000/svg">
  <g transform="matrix(1 0 0 1 -85 -19 )">
    <path d="M 25.375 20.993303571428573  C 25.525 21.65625  25.6 22.380580357142854  25.6 23.166294642857142  C 25.6 23.95200892857143  25.291666666666668 24.60881696428571  24.675 25.13671875  C 24.058333333333334 25.66462053571429  23.3 25.928571428571427  22.4 26  L 9.6 26  C 8.7 25.928571428571427  7.941666666666667 25.66462053571429  7.325 25.13671875  C 6.708333333333334 24.60881696428571  6.4 23.95200892857143  6.4 23.166294642857142  C 6.4 22.380580357142854  6.475 21.65625  6.625 20.993303571428573  C 6.775 20.330357142857142  7.020833333333334 19.691964285714285  7.3625 19.078125  C 7.7041666666666675 18.464285714285715  8.2125 17.982421875  8.8875 17.632533482142858  C 9.562500000000002 17.28264508928571  10.366666666666669 17.107700892857142  11.3 17.107700892857142  C 12.633333333333335 18.028459821428573  14.2 18.48883928571429  16 18.48883928571429  C 17.8 18.48883928571429  19.366666666666667 18.028459821428573  20.7 17.107700892857142  C 21.633333333333333 17.107700892857142  22.4375 17.28264508928571  23.1125 17.632533482142858  C 23.7875 17.982421875  24.295833333333334 18.464285714285715  24.6375 19.078125  C 24.979166666666668 19.691964285714285  25.225 20.330357142857142  25.375 20.993303571428573  Z M 20.0625 10.653180803571429  C 21.187500000000004 11.469587053571425  21.750000000000004 12.454799107142858  21.75 13.608816964285715  C 21.750000000000004 14.762834821428571  21.187500000000004 15.748046874999998  20.0625 16.564453125  C 18.9375 17.380859374999996  17.583333333333336 17.7890625  16 17.7890625  C 14.416666666666668 17.7890625  13.0625 17.380859374999996  11.9375 16.564453125  C 10.8125 15.748046874999998  10.25 14.762834821428571  10.25 13.608816964285715  C 10.25 12.454799107142858  10.8125 11.469587053571425  11.9375 10.653180803571429  C 13.0625 9.836774553571427  14.416666666666668 9.428571428571429  16 9.428571428571429  C 17.583333333333336 9.428571428571429  18.9375 9.836774553571427  20.0625 10.653180803571429  Z M 28.5625 30.467912946428573  C 28.72083333333334 30.351283482142858  28.8 30.213169642857142  28.8 30.053571428571427  L 28.8 5  L 3.2 5  L 3.2 30.053571428571427  C 3.2 30.213169642857142  3.2791666666666672 30.351283482142858  3.4375 30.467912946428573  C 3.5958333333333337 30.584542410714285  3.7833333333333337 30.642857142857142  4 30  L 28 30  C 28.21666666666667 30.642857142857142  28.40416666666667 30.584542410714285  28.5625 30.467912946428573  Z M 30.825 0.8655133928571439  C 31.608333333333338 1.4425223214285694  32 2.1361607142857157  32 2.946428571428572  L 32 30.053571428571427  C 32 30.863839285714285  31.608333333333338 31.55747767857143  30.825 32.134486607142854  C 30.041666666666668 32.711495535714285  29.1 33  28 33  L 4 33  C 2.9 33  1.9583333333333335 32.711495535714285  1.175 32.134486607142854  C 0.39166666666666666 31.55747767857143  0 30.863839285714285  0 30.053571428571427  L 0 2.946428571428572  C 0 2.1361607142857157  0.39166666666666666 1.4425223214285694  1.175 0.8655133928571439  C 1.9583333333333335 0.28850446428571463  2.9 0  4 0  L 12.8 0  L 12.8 1.767857142857144  C 12.8 1.9397321428571415  12.875 2.080915178571428  13.025 2.19140625  C 13.175 2.301897321428572  13.366666666666669 2.357142857142856  13.6 2.357142857142856  L 18.4 2.357142857142856  C 18.633333333333333 2.357142857142856  18.825 2.301897321428572  18.975 2.19140625  C 19.125 2.080915178571428  19.2 1.9397321428571415  19.2 1.767857142857144  L 19.2 0  L 28 0  C 29.1 0  30.041666666666668 0.28850446428571463  30.825 0.8655133928571439  Z " fill-rule="nonzero" fill="#000000" stroke="none" fill-opacity="0.6392156862745098" transform="matrix(1 0 0 1 85 19 )" />
  </g>
</svg>