<?xml version="1.0" encoding="utf-8"?>
<svg version="1.1" xmlns:xlink="http://www.w3.org/1999/xlink" width="36px" height="35px" xmlns="http://www.w3.org/2000/svg">
  <g transform="matrix(1 0 0 1 -232 -19 )">
    <path d="M 8.25 23.515625  L 9.46875 22.330729166666664  L 13.03125 25.794270833333336  L 11.8125 26.979166666666668  L 10.5 26.979166666666668  L 10.5 24.791666666666664  L 8.25 24.791666666666664  L 8.25 23.515625  Z M 18.46875 13.512369791666668  C 18.734375 13.254123263888888  18.96875 13.231336805555555  19.171875 13.444010416666668  C 19.390625 13.641493055555555  19.3671875 13.869357638888888  19.1015625 14.127604166666668  L 12.28125 20.758463541666664  C 12.015625000000002 21.016710069444446  11.781250000000002 21.039496527777775  11.578125 20.826822916666664  C 11.359375000000002 20.629340277777775  11.382812500000002 20.401475694444446  11.6484375 20.143229166666664  L 18.46875 13.512369791666668  Z M 6 29.166666666666668  L 12.75 29.166666666666668  L 25.5 16.770833333333332  L 18.75 10.208333333333332  L 6 22.604166666666664  L 6 29.166666666666668  Z M 20.25 8.75  L 27 15.3125  L 29.15625 13.216145833333332  C 29.59375 12.790798611111109  29.8125 12.274305555555555  29.8125 11.666666666666668  C 29.8125 11.059027777777777  29.59375 10.542534722222218  29.15625 10.1171875  L 25.59375 6.653645833333332  C 25.156250000000004 6.228298611111109  24.625 6.015625  24 6.015625  C 23.375000000000004 6.015625  22.84375 6.228298611111109  22.40625 6.653645833333332  L 20.25 8.75  Z M 34.01953125 1.9254557291666679  C 35.33984375 3.2090928819444415  36 4.754774305555551  36 6.5625  L 36 28.4375  C 36 30.245225694444443  35.33984375 31.790907118055557  34.01953125 33.07454427083333  C 32.69921875 34.35818142361111  31.109375000000004 35  29.25 35  L 6.75 35  C 4.890625 35  3.3007812500000004 34.35818142361111  1.98046875 33.07454427083333  C 0.6601562499999999 31.790907118055557  0 30.245225694444443  0 28.4375  L 0 6.5625  C 0 4.754774305555551  0.6601562499999999 3.2090928819444415  1.98046875 1.9254557291666679  C 3.3007812500000004 0.6418185763888867  4.890625 0  6.75 0  L 29.25 0  C 31.109375000000004 0  32.69921875 0.6418185763888867  34.01953125 1.9254557291666679  Z " fill-rule="nonzero" fill="#000000" stroke="none" fill-opacity="0.6392156862745098" transform="matrix(1 0 0 1 232 19 )" />
  </g>
</svg>